# xmcd CD database file
#
# Track frame offsets:
#	182
#	17152
#	28282
#	44485
#	57090
#	68655
#	88495
#	100510
#	110320
#	129745
#	142307
#	158047
#
# Disc length: 2300 seconds
#
# Revision: 1
# Processed by: cddbd v1.5.2PL0 Copyright (c) Steve Scherf et al.
# Submitted via: CDex 1.99.1
#
DISCID=a908fa0c
DTITLE=Linda Ronstadt - Greatest Hits - Linda Ronstadt
DYEAR=1976
DGENRE=Country
TTITLE0=You're no good
TTITLE1=Silver threads and golden needles
TTITLE2=Desperado
TTITLE3=Love is a rose
TTITLE4=That'll be the day
TTITLE5=Long long time
TTITLE6=Different drum
TTITLE7=When will I be loved?
TTITLE8=Love has no pride
TTITLE9=Heat wave
TTITLE10=It doesn't matter anymore
TTITLE11=Tracks of my tears
EXTD=YEAR: 1976
EXTT0=
EXTT1=
EXTT2=
EXTT3=
EXTT4=
EXTT5=
EXTT6=
EXTT7=
EXTT8=
EXTT9=
EXTT10=
EXTT11=
PLAYORDER=
